PathFileType  4	(X/Y/Z) C:\Users\antoi\Documents\MyRepositories\mobilecap\ResultsAnalysis
DataRate	CameraRate	NumFrames	NumMarkers	Units	OrigDataRate	OrigDataStartFrame	OrigNumFrames
100.0	100.0	6	51	mm	100.0	76	150
Frame#	Time	r_knee			r_shank_antsup			r_ankle			r_calc			r_5meta			r_toe			L_knee			L_shank_antsup			L_ankle			L_calc			L_5meta			L_toe			r_sh2			r_sh3			r_sh4			L_sh2			L_sh3			r_thigh1			r_thigh2			r_thigh3			r_thigh4			r_thigh5			L_thigh1			L_thigh2			L_thigh3			L_thigh4			r.ASIS			r.PSIS			L.ASIS			L.PSIS			C7			R_Shoulder			L_Shoulder			R_Sternum			L_Sternum			R_humerus			R_elbow_med			R_elbow_lat			R_forearm			R_wrist_radius			R_wrist_ulna			L_humerus			L_elbow_med			L_elbow_lat			L_forearm			L_wrist_radius			L_wrist_ulna			R_HJC			L_HJC			R_HJC_reg			L_HJC_reg			
		X1	Y1	Z1	X2	Y2	Z2	X3	Y3	Z3	X4	Y4	Z4	X5	Y5	Z5	X6	Y6	Z6	X7	Y7	Z7	X8	Y8	Z8	X9	Y9	Z9	X10	Y10	Z10	X11	Y11	Z11	X12	Y12	Z12	X13	Y13	Z13	X14	Y14	Z14	X15	Y15	Z15	X16	Y16	Z16	X17	Y17	Z17	X18	Y18	Z18	X19	Y19	Z19	X20	Y20	Z20	X21	Y21	Z21	X22	Y22	Z22	X23	Y23	Z23	X24	Y24	Z24	X25	Y25	Z25	X26	Y26	Z26	X27	Y27	Z27	X28	Y28	Z28	X29	Y29	Z29	X30	Y30	Z30	X31	Y31	Z31	X32	Y32	Z32	X33	Y33	Z33	X34	Y34	Z34	X35	Y35	Z35	X36	Y36	Z36	X37	Y37	Z37	X38	Y38	Z38	X39	Y39	Z39	X40	Y40	Z40	X41	Y41	Z41	X42	Y42	Z42	X43	Y43	Z43	X44	Y44	Z44	X45	Y45	Z45	X46	Y46	Z46	X47	Y47	Z47	X48	Y48	Z48	X49	Y49	Z49	X50	Y50	Z50	X51	Y51	Z51	

76	0.75000000	645.98450	507.74086	3.37946	605.90428	432.64368	14.40184	305.81771	231.82941	-44.72899	235.73194	258.49600	-95.25283	327.55118	70.42149	-33.74182	368.72597	74.33359	-91.51743	860.69952	538.50892	-301.66606	908.38677	424.41467	-313.58073	887.18947	95.33124	-293.32918	816.79005	54.27187	-259.71902	1045.58331	34.21472	-316.05311	1062.36151	65.92464	-250.99585	517.53459	361.00108	10.88642	556.16907	492.47181	20.24597	462.10365	425.95935	7.80076	817.61253	424.21848	-329.30431	830.71713	304.27001	-328.16314	739.21509	817.14334	31.30214	750.05439	707.48312	24.09211	689.79174	678.63323	40.15631	626.53394	807.87049	20.08006	639.03032	694.24330	20.74034	818.58768	861.18363	-325.13732	873.14071	734.58432	-319.61789	713.88264	816.95820	-332.30130	774.38873	689.49037	-330.19918	779.38180	1018.20853	-15.12812	595.19843	1073.49548	-102.56251	798.23349	1024.28606	-274.31422	597.02789	1073.04549	-205.38272	678.51822	1543.07577	-320.36975	713.26110	1576.56109	-136.41296	775.63677	1458.78914	-440.84701	816.31101	1482.76409	-236.50098	824.57615	1459.65495	-288.35160	598.31298	1374.93701	26.63919	542.13708	1276.19278	-20.79743	549.73108	1303.33450	57.14754	592.17460	1158.02696	119.48162	617.55674	1048.69822	143.37626	574.89687	1057.16443	156.28908	706.85392	1208.94036	-501.08313	629.31545	1142.05544	-441.99943	656.20079	1133.29554	-505.45224	665.42495	960.40245	-516.82782	670.88540	860.44336	-505.62348	634.91443	862.42075	-517.41602	691.33480	945.50531	-28.77673	707.31488	950.69130	-258.53528	706.23073	953.11917	-52.80113	709.28305	952.37210	-224.32852	
77	0.76000000	668.35707	508.79796	4.09797	627.62151	434.71164	15.04952	323.72685	241.31715	-44.36098	256.35896	272.74561	-95.40144	334.31494	78.15397	-34.11981	378.15424	79.32782	-90.33063	866.58729	538.76270	-302.66172	912.50995	423.95794	-314.63869	887.32864	95.22361	-293.35246	816.79456	54.32469	-259.73357	1045.65779	33.94143	-316.05139	1062.48675	65.45740	-250.86303	537.80635	364.80260	11.35913	579.08013	495.42863	20.75808	483.73248	430.75601	8.28456	821.70494	424.99841	-329.58304	833.18049	304.94192	-328.28141	753.30108	819.36961	31.47923	766.54481	709.69115	24.99261	706.63336	679.79690	40.69724	640.86237	807.73419	19.33904	656.29177	694.81691	21.11701	828.06585	861.66232	-327.16535	880.95705	734.50216	-321.57903	722.69060	819.00839	-332.87798	781.57750	690.74271	-330.92740	790.19613	1020.24437	-15.98146	606.27290	1075.58380	-103.62769	809.33560	1026.12776	-275.03855	608.29073	1075.48366	-206.27334	690.26602	1544.65194	-322.35213	724.86894	1578.89921	-138.55163	787.85893	1460.28795	-442.28456	827.91964	1484.63309	-238.04660	836.21562	1461.30609	-289.81732	609.27312	1378.09264	25.00862	552.83242	1279.52002	-22.40971	560.50516	1306.62030	55.51670	602.04859	1161.11576	117.98071	626.65044	1051.52139	141.88218	583.95907	1060.44171	154.98609	722.33528	1209.69598	-503.07351	645.29914	1141.68692	-444.53517	672.61345	1133.41267	-507.83252	684.40967	960.73936	-519.61998	692.46530	862.08382	-508.06967	655.26587	862.37787	-520.51991	702.07591	947.61222	-29.66045	718.32005	952.76331	-259.39912	717.12457	954.68405	-54.01059	720.49586	954.52029	-225.46057	
78	0.77000000	690.68342	510.25032	4.58530	649.45041	437.00436	15.43447	342.38628	250.50658	-44.18355	278.01230	286.07160	-95.89298	342.27536	86.21806	-34.48989	388.36784	84.22596	-89.16577	872.00893	539.02099	-303.54341	916.27503	423.55282	-315.63324	887.43072	95.11487	-293.42765	816.81571	54.34027	-259.77361	1045.71024	33.77308	-316.03469	1062.53098	65.13722	-250.72940	558.43983	368.58690	11.58974	601.95534	498.45194	21.06416	505.52957	435.39121	8.65612	825.47709	425.74729	-329.97606	835.44068	305.61265	-328.54268	767.39303	821.72725	31.54550	783.00159	712.17602	25.60945	723.55871	681.16073	41.12353	655.25183	807.73122	18.71255	673.74520	695.59946	21.46774	837.51932	862.43987	-328.49670	888.60749	734.57947	-323.01687	731.39403	821.15099	-333.52108	788.65667	692.21462	-331.66560	800.86498	1022.30317	-16.76144	617.20178	1077.70922	-104.58151	820.26608	1027.98617	-275.73167	619.38323	1077.93220	-207.05482	701.85540	1546.32262	-324.20417	736.27044	1581.19487	-140.48651	799.88609	1461.89455	-443.57142	839.34285	1486.53004	-239.41833	847.68091	1463.01973	-291.10541	620.05378	1381.13963	23.54096	563.28714	1282.73773	-23.84216	571.12866	1309.78961	54.07620	611.90698	1164.10239	116.57777	635.88620	1054.29971	140.42840	593.14541	1063.56018	153.69614	737.69455	1210.62146	-505.09282	661.18273	1141.38258	-447.16015	688.95635	1133.66739	-510.28386	703.60040	961.25061	-522.44919	714.19058	863.77946	-510.76492	676.08833	862.49880	-523.62553	712.68216	949.74464	-30.45908	729.14125	954.85311	-260.18217	727.86479	956.29871	-55.11843	731.51434	956.67433	-226.51680	
79	0.78000000	712.86468	512.05807	4.87319	671.30380	439.44564	15.56646	361.67839	259.23832	-44.22676	300.33260	298.13852	-96.77851	351.81113	94.33654	-34.73352	399.52604	88.84931	-88.01788	877.02330	539.30441	-304.31421	919.76044	423.20030	-316.57649	887.50876	95.01201	-293.56923	816.84923	54.33222	-259.83791	1045.74765	33.66492	-316.01696	1062.50839	64.92363	-250.62290	579.33115	372.27377	11.59711	624.68214	501.47603	21.22281	527.37325	439.78274	8.94028	828.98780	426.46710	-330.50756	837.54805	306.27302	-328.96261	781.50486	824.22062	31.47853	799.40038	714.96752	25.95723	740.56784	682.73760	41.45377	669.70548	807.86791	18.21545	691.27964	696.48402	21.71442	846.99618	863.50897	-329.15264	896.17888	734.83813	-323.96728	740.08000	823.39483	-334.24884	795.71876	693.87181	-332.46598	811.46199	1024.39486	-17.49902	628.00750	1079.85915	-105.37645	831.05058	1029.90184	-276.40942	630.31621	1080.36029	-207.70226	713.27579	1548.06766	-325.92226	747.45323	1583.43610	-142.22143	811.69455	1463.58143	-444.71198	850.58310	1488.45773	-240.63365	858.97285	1464.80114	-292.23769	630.64059	1384.05103	22.21270	573.49858	1285.81573	-25.10211	581.59844	1312.81221	52.79688	621.75286	1166.96097	115.26740	645.25243	1057.01252	139.02873	602.45989	1066.49891	152.43914	752.92771	1211.68669	-507.12840	676.98167	1141.11533	-449.85844	705.23703	1134.03201	-512.79116	722.99448	961.92190	-525.30531	735.96528	865.39223	-513.71268	697.35204	862.77541	-526.73225	723.24182	951.89477	-31.17348	739.81274	956.97469	-260.88876	738.51618	958.00333	-56.13209	742.38280	958.84388	-227.49310	
80	0.79000000	734.83191	514.15926	4.97517	693.10999	441.95888	15.45278	381.46987	267.32744	-44.50886	322.89182	308.63321	-98.07771	363.35719	102.20499	-34.71877	412.02379	93.14700	-86.82430	881.68939	539.60677	-304.98660	923.02145	422.88192	-317.46157	887.57356	94.92332	-293.76992	816.88386	54.31611	-259.91784	1045.78027	33.58091	-316.00670	1062.44366	64.77032	-250.55241	600.37678	375.79941	11.39304	647.18124	504.43397	21.29535	549.16782	443.85248	9.15789	832.28524	427.14790	-331.15387	839.54333	306.90355	-329.51534	795.62903	826.84715	31.26606	815.71291	718.06165	26.06373	757.64624	684.52629	41.70234	684.21048	808.13717	17.84297	708.70873	697.31639	21.74501	856.51235	864.77742	-329.27548	903.69497	735.22169	-324.54473	748.77386	825.70736	-335.04926	802.77587	695.62291	-333.33894	822.04780	1026.53292	-18.21464	638.71779	1082.01373	-106.01259	841.72456	1031.85887	-277.07118	641.11377	1082.73978	-208.23213	724.51507	1549.86382	-327.49105	758.40599	1585.61362	-143.75959	823.25598	1465.33320	-445.70883	861.64333	1490.41981	-241.70686	870.09160	1466.65365	-293.23664	641.02622	1386.80275	21.00258	583.49331	1288.72793	-26.21552	591.91254	1315.65940	51.64298	631.58197	1169.66552	114.04027	654.71822	1059.62720	137.69140	611.88341	1069.23918	151.22957	768.03390	1212.87350	-509.16268	692.71054	1140.87324	-452.60640	721.46204	1134.49210	-515.33785	742.59294	962.75177	-528.17659	757.80536	866.89669	-516.83650	719.03087	863.21270	-529.84443	733.81342	954.06472	-31.80022	750.37715	959.10411	-261.51689	749.14061	959.79781	-57.05998	753.15611	961.01468	-228.38298	
81	0.80000000	756.52570	516.49204	4.89503	714.79976	444.49396	15.10196	401.61363	274.58571	-45.03201	345.25356	317.30045	-99.76798	377.32002	109.51860	-34.33422	426.38410	97.15301	-85.50551	886.06869	539.90396	-305.57912	926.09511	422.57559	-318.26613	887.63701	94.85537	-294.00318	816.90678	54.30778	-260.00362	1045.81841	33.49697	-316.00754	1062.36584	64.63396	-250.51084	621.47430	379.12986	10.98466	669.39172	507.28393	21.31625	570.83209	447.55674	9.30840	835.40864	427.77964	-331.85497	841.45577	307.48784	-330.14386	809.73474	829.59575	30.90144	831.91797	721.41275	25.95618	774.76468	686.51252	41.87353	698.74329	808.52382	17.56870	725.83848	697.96520	21.46884	866.05278	866.10873	-329.07230	911.13345	735.63473	-324.89098	757.45723	828.03574	-335.89095	809.78235	697.36630	-334.25544	832.66235	1028.72125	-18.92134	649.36404	1084.15059	-106.52814	852.32095	1033.80005	-277.71149	651.80490	1085.04881	-208.69013	735.56302	1551.68942	-328.88824	769.12183	1587.71831	-145.10264	834.54364	1467.14491	-446.56540	872.52774	1492.41485	-242.64825	881.04194	1468.57415	-294.12274	651.21174	1389.37239	19.89296	593.32317	1291.45333	-27.22988	602.07058	1318.30376	50.57759	641.38147	1172.19236	112.88798	664.24561	1062.10563	136.42530	621.38402	1071.76622	150.07600	783.01181	1214.17586	-511.17677	708.38125	1140.65693	-455.37723	737.63581	1135.04514	-517.90820	762.39331	963.75206	-531.04978	779.79013	868.37015	-520.02600	741.10032	863.83218	-532.96528	744.42190	956.25715	-32.33974	760.87142	961.19253	-262.06686	759.78601	961.64993	-57.90997	763.87747	963.15487	-229.18177	
